# xmcd CD database file
#
# Track frame offsets:
#	150
#	20519
#	50292
#	71474
#	99248
#	150986
#	170823
#	188684
#	213607
#
# Disc length: 3122 seconds
#
# Revision: 2
# Processed by: cddbd v1.5.2PL0 Copyright (c) Steve Scherf et al.
# Submitted via: CDex 1.73
#
DISCID=6f0c3009
DTITLE=Joe Cocker - Fire It Up - Live - CD2
DYEAR=2013
DGENRE=Rock
TTITLE0=Fire It Up
TTITLE1=N'oubliez jamais
TTITLE2=You Can Leave Your Hat On
TTITLE3=Unchain My Heart
TTITLE4=With A Little Help From My Friends
TTITLE5=Summer In The City
TTITLE6=Hard Knocks
TTITLE7=Cry Me A River
TTITLE8=You Don't Know What You're Doing To Me
EXTD=YEAR: 2013
EXTT0=
EXTT1=
EXTT2=
EXTT3=
EXTT4=
EXTT5=
EXTT6=
EXTT7=
EXTT8=
PLAYORDER=
